<?xml version="1.0" encoding="iso-8859-1"?>
<!-- Generator: Adobe Illustrator 16.0.0, SVG Export Plug-In . SVG Version: 6.00 Build 0)  -->
<!DOCTYPE svg PUBLIC "-//W3C//DTD SVG 1.1//EN" "http://www.w3.org/Graphics/SVG/1.1/DTD/svg11.dtd">
<svg version="1.1" id="Capa_1" xmlns="http://www.w3.org/2000/svg" xmlns:xlink="http://www.w3.org/1999/xlink" x="0px" y="0px"
	 width="575.568px" height="575.568px" viewBox="0 0 575.568 575.568" style="enable-background:new 0 0 575.568 575.568;"
	 xml:space="preserve" fill="#fff">
<g>
	<g>
		<path d="M285.994,141.629c9.553-6.861,59.149-38.887,132.088-23.397c-36.084-27.772-81.25-44.327-130.307-44.327
			c-48.562,0-93.324,16.212-129.224,43.482C228.925,104.211,276.648,134.921,285.994,141.629z"/>
		<path d="M285.994,242.793C153.851,344.818,141.904,425.016,140.968,443.234c38.311,36.193,89.952,58.428,146.812,58.428
			c55.129,0,105.379-20.869,143.305-55.129C431.258,438.994,429.832,353.852,285.994,242.793z"/>
		<path d="M339.697,194.334c0,0,148.74,144.462,91.848,251.794c43.066-39.125,70.111-95.576,70.111-158.348
			c0-63.011-27.264-119.652-70.619-158.79C429.574,134.597,345.51,162.394,339.697,194.334z"/>
		<path d="M232.291,194.334c-5.361-29.492-77.412-55.447-89.578-63.66c-42.295,39.076-68.807,94.988-68.807,157.112
			c0,59.504,24.321,113.313,63.532,152.083C89.303,333.266,232.291,194.334,232.291,194.334z"/>
		<path d="M287.787,575.568c158.686,0,287.782-129.102,287.782-287.788C575.568,129.095,446.467,0,287.787,0
			C129.095,0,0,129.102,0,287.787C0,446.473,129.095,575.568,287.787,575.568z M287.787,30.6
			c141.813,0,257.18,115.374,257.18,257.187c0,141.813-115.373,257.18-257.18,257.18c-141.806,0-257.193-115.373-257.193-257.18
			C30.594,145.98,145.974,30.6,287.787,30.6z"/>
	</g>
</g>
<g>
</g>
<g>
</g>
<g>
</g>
<g>
</g>
<g>
</g>
<g>
</g>
<g>
</g>
<g>
</g>
<g>
</g>
<g>
</g>
<g>
</g>
<g>
</g>
<g>
</g>
<g>
</g>
<g>
</g>
</svg>
