<svg id="Layer_1" data-name="Layer 1" xmlns="http://www.w3.org/2000/svg" viewBox="0 0 30 30"><defs><style>.cls-1{fill:#fff;}</style></defs><title>ADS_Down</title><path class="cls-1" d="M19.87,5.73,15,12.06,10.13,5.73h9.74"/><path class="cls-1" d="M21.94,13.21H8.06a3,3,0,0,0-3,3V29H24.94V16.21A3,3,0,0,0,21.94,13.21ZM23.83,24a4,4,0,0,1-4,4H10.17a4,4,0,0,1-4-4v-5.7a4,4,0,0,1,4-4h9.66a4,4,0,0,1,4,4Z"/><path class="cls-1" d="M19.49,20.65h-.67a3.86,3.86,0,0,0-3.32-3.29v-.67h-1v.67a3.86,3.86,0,0,0-3.32,3.29h-.67v1h.67A3.85,3.85,0,0,0,14.5,25v.67h1V25a3.85,3.85,0,0,0,3.32-3.35h.67ZM15.5,24v-.58h-1V24a2.86,2.86,0,0,1-2.32-2.35h.57v-1h-.57a2.88,2.88,0,0,1,2.32-2.29v.57h1v-.57a2.88,2.88,0,0,1,2.32,2.29h-.57v1h.57A2.86,2.86,0,0,1,15.5,24Z"/></svg>