<svg id="Layer_1" data-name="Layer 1" xmlns="http://www.w3.org/2000/svg" viewBox="0 0 30 30"><defs><style>.cls-1{fill:#fff;}</style></defs><title>ADS_Up</title><path class="cls-1" d="M15,1.55l4.87,6.33H10.13L15,1.55"/><path class="cls-1" d="M21.94,9H8.06a3,3,0,0,0-3,3V29H24.94V12A3,3,0,0,0,21.94,9Zm1.89,10.81a4,4,0,0,1-4,4H10.17a4,4,0,0,1-4-4v-5.7a4,4,0,0,1,4-4h9.66a4,4,0,0,1,4,4Z"/><path class="cls-1" d="M19.49,16.47h-.67a3.87,3.87,0,0,0-3.32-3.3V12.5h-1v.67a3.87,3.87,0,0,0-3.32,3.3h-.67v1h.67a3.84,3.84,0,0,0,3.32,3.34v.68h1v-.68a3.84,3.84,0,0,0,3.32-3.34h.67Zm-4,3.34v-.57h-1v.57a2.86,2.86,0,0,1-2.32-2.34h.57v-1h-.57a2.89,2.89,0,0,1,2.32-2.3v.58h1v-.58a2.89,2.89,0,0,1,2.32,2.3h-.57v1h.57A2.86,2.86,0,0,1,15.5,19.81Z"/></svg>