<svg id="Layer_1" data-name="Layer 1" xmlns="http://www.w3.org/2000/svg" viewBox="0 0 30 30"><defs><style>.cls-1{fill:#fff;}</style></defs><title>Pen</title><rect class="cls-1" x="1.81" y="9.68" width="20.56" height="1"/><polygon class="cls-1" points="21.97 17.06 20.93 17.06 20.93 17.06 19.89 17.06 23.15 21.22 23.36 21.49 23.36 21.84 23.36 25.82 25.72 25.82 25.72 21.84 21.97 17.06"/><polygon class="cls-1" points="15.27 17.06 14.23 17.06 6.6 17.06 5.56 17.06 1.81 21.84 1.81 25.82 19.01 25.82 19.01 21.84 15.27 17.06"/><polygon class="cls-1" points="18.61 17.06 17.57 17.06 16.54 17.06 19.8 21.22 20.01 21.49 20.01 21.84 20.01 25.82 22.36 25.82 22.36 21.84 18.61 17.06"/><path class="cls-1" d="M25.14,8.83H23.6v2.69h1.54a4.4,4.4,0,0,0,3.2-1.34A4.39,4.39,0,0,0,25.14,8.83Z"/><path class="cls-1" d="M19.81,8.6H22.1a5.22,5.22,0,0,0-5-3.67A6.3,6.3,0,0,1,19.81,8.6Z"/><path class="cls-1" d="M19.81,11.75a6.3,6.3,0,0,1-2.66,3.67,5.22,5.22,0,0,0,5-3.67Z"/><path class="cls-1" d="M16.46,8.6h2.29A5.23,5.23,0,0,0,13.8,4.93,6.3,6.3,0,0,1,16.46,8.6Z"/><path class="cls-1" d="M16.46,11.75a6.3,6.3,0,0,1-2.66,3.67,5.23,5.23,0,0,0,4.95-3.67Z"/><path class="cls-1" d="M15.4,8.6a5.22,5.22,0,0,0-10,0Z"/><path class="cls-1" d="M5.43,11.75a5.22,5.22,0,0,0,10,0Z"/></svg>