<svg id="Layer_1" data-name="Layer 1" xmlns="http://www.w3.org/2000/svg" viewBox="0 0 30 30"><defs><style>.cls-1{fill:#fff;}</style></defs><title>Capacity</title><path class="cls-1" d="M15.64,7.27a23.84,23.84,0,0,1-2.09,3.57,23.74,23.74,0,0,1-4.13,4.47c-.52.43-1.06.84-1.61,1.22h0l-.51-.8L5.56,16.8l5.05,8.74A32.71,32.71,0,0,0,25.9,5.63L17.1,3.27A23.24,23.24,0,0,1,15.64,7.27Zm-4,14-.5-.87q.86-.5,1.65-1.05h0l.58.82C12.79,20.55,12.21,20.91,11.62,21.26ZM15,18.92l-.64-.77c.5-.42,1-.86,1.45-1.31h0l.7.71C16,18,15.5,18.48,15,18.92ZM21.65,6.83l1,.27c-.18.65-.39,1.31-.63,1.94l-.93-.35C21.27,8.08,21.48,7.46,21.65,6.83Zm-1.37,3.66.9.43c-.29.61-.61,1.22-.95,1.8l-.86-.5C19.7,11.66,20,11.08,20.28,10.49Zm-2,3.37.81.58c-.39.55-.81,1.1-1.25,1.61l-.76-.65C17.52,14.91,17.93,14.39,18.31,13.86Z"/><path class="cls-1" d="M26.42,3.7l-8.8-2.36L15.69.82l-.52,1.93A21.63,21.63,0,0,1,8.31,13.62L7.91,13,6.25,14,4.51,15.1l-1.66,1,1,1.69,5,8.74,1,1.73,1.73-1A34.56,34.56,0,0,0,27.83,6.15l.52-1.94Zm.45,2.19A33.63,33.63,0,0,1,11.11,26.41l-.87.5L9.74,26l-5-8.74-.48-.84L5,16l1.74-1.07.83-.51.47.73A22.74,22.74,0,0,0,16.14,3l.26-1,1,.25,8.8,2.36,1,.26Z"/></svg>