<svg id="Layer_1" data-name="Layer 1" xmlns="http://www.w3.org/2000/svg" viewBox="0 0 30 30"><defs><style>.cls-1{fill:#fff;}</style></defs><title>MOVE_ADS</title><polygon class="cls-1" points="23.18 21.62 23.18 23.15 23.18 23.21 23.73 23.58 25 24.41 23.73 25.25 23.18 25.61 23.18 25.68 23.18 27.21 27.42 24.41 23.18 21.62"/><polygon class="cls-1" points="14.73 21.62 14.73 23.15 14.73 23.23 15.26 23.58 16.53 24.41 15.26 25.25 14.73 25.6 14.73 25.68 14.73 27.21 18.97 24.41 14.73 21.62"/><polygon class="cls-1" points="18.95 24.4 18.95 24.43 18.97 24.41 18.95 24.4"/><polygon class="cls-1" points="18.95 21.62 18.95 23.15 18.95 23.2 19.52 23.58 20.78 24.41 19.52 25.25 18.95 25.62 18.95 25.68 18.95 27.21 23.18 24.41 18.95 21.62"/><circle class="cls-1" cx="8" cy="6.06" r="3.59"/><path class="cls-1" d="M22.77,8.33a.11.11,0,0,0-.06-.09s0,0-.05-.07l0-.07S22.58,8,22.53,8A.18.18,0,0,1,22.34,8l0,0s-.06,0-.09,0l0,0c0,.07-.08.07-.14.07h-.68c-.9,0-1.8,0-2.7,0-.68,0-1.36,0-2,0h-2c-.06,0-.09,0-.11-.07s-.05-.11-.12-.11-.11,0-.12.08a.16.16,0,0,1-.21.12h-.14a.1.1,0,0,0-.11.08.36.36,0,0,0,0,.14,5.61,5.61,0,0,0,0,.58.52.52,0,0,0,0,.18.14.14,0,0,1,0,.11,1.21,1.21,0,0,0-.09.2.13.13,0,0,0,.11.18l.22,0a.7.7,0,0,1,.23.11l0,.06h1a2.11,2.11,0,0,1,1.94,1.45l.05,0a1.28,1.28,0,0,0,.31.11h.49c.16,0,.33,0,.49,0s.35,0,.52,0l.31,0a.13.13,0,0,0,.13-.18,1.09,1.09,0,0,1-.07-.24c0-.22,0-.44,0-.66,0-.06.06-.12.06-.19s0,0,.06-.07a.85.85,0,0,1,.24-.09c.22,0,.44,0,.64,0h.43c.25,0,.49,0,.74,0h.59l.29,0a.17.17,0,0,0,.14-.14,1,1,0,0,0,0-.17c0-.1,0-.2,0-.29a1.47,1.47,0,0,1,0-.21s0-.05,0-.06a.09.09,0,0,0,.06-.07A1.88,1.88,0,0,0,22.77,8.33ZM17.32,11a.45.45,0,0,1-.19-.38V10.5a.08.08,0,0,1,0,0,1,1,0,0,0,.2.41v0Zm1.61,0a.66.66,0,0,1-.27.06l-.84,0h-.19l-.1,0s0,0,0,0h0c.1,0,.11-.07.09-.16s0-.23-.07-.35a.31.31,0,0,1,0-.19l.09-.21a.11.11,0,0,1,.09-.06l.35,0,.33,0a1.62,1.62,0,0,1,.31,0,.37.37,0,0,1,.36.26,1.32,1.32,0,0,1,.05.44A.45.45,0,0,1,18.93,11Z"/><path class="cls-1" d="M15.82,13.8a2,2,0,0,1-.55.09H13c0,.06,0,.12.07.15l.18.12a.33.33,0,0,0,.2,0h.19s0,0,0,0,0,.14.15.14h.34l1.26,0h.11c.08,0,.11-.07.13-.14s0,0,0-.06.16-.18.14-.33S15.83,13.83,15.82,13.8Z"/><path class="cls-1" d="M15.23,10.77H6.88L5.52,13.14V19.2h0v3.09L2.35,25.46,4.1,27.21,8,23.31v3.9h2.48V13.89H8.64v-1h6.63a1,1,0,0,0,1-1A1.09,1.09,0,0,0,15.23,10.77Z"/></svg>