<svg id="Layer_1" data-name="Layer 1" xmlns="http://www.w3.org/2000/svg" viewBox="0 0 30 30"><defs><style>.cls-1{fill:#fff;}</style></defs><title>MOVE_Hip</title><polygon class="cls-1" points="23.17 21.62 23.17 23.15 23.17 23.21 23.72 23.58 24.99 24.41 23.72 25.25 23.17 25.61 23.17 25.68 23.17 27.21 27.41 24.41 23.17 21.62"/><polygon class="cls-1" points="14.72 21.62 14.72 23.15 14.72 23.23 15.25 23.58 16.52 24.41 15.25 25.25 14.72 25.6 14.72 25.68 14.72 27.21 18.96 24.41 14.72 21.62"/><polygon class="cls-1" points="18.94 24.4 18.94 24.43 18.96 24.41 18.94 24.4"/><polygon class="cls-1" points="18.94 21.62 18.94 23.15 18.94 23.2 19.51 23.58 20.77 24.41 19.51 25.25 18.94 25.62 18.94 25.68 18.94 27.21 23.17 24.41 18.94 21.62"/><circle class="cls-1" cx="8" cy="6.06" r="3.59"/><path class="cls-1" d="M14.82,18.44a1.63,1.63,0,0,1-.73.17H12c0,.06,0,.12.07.15l.18.12a.42.42,0,0,0,.2.05h.19s0,0,0,0,0,.14.15.14h.34l1.26,0h.11c.08,0,.11-.07.13-.14s0-.05,0-.06.16-.18.14-.33A.76.76,0,0,1,14.82,18.44Z"/><path class="cls-1" d="M21.77,13.05a.11.11,0,0,0-.06-.09s0,0-.05-.07l0-.07c0-.05-.05-.08-.1-.07a.18.18,0,0,1-.19-.08l0,0s-.06,0-.09,0l0,0c0,.07-.08.07-.14.07h-.68c-.9,0-1.8,0-2.7,0-.68,0-1.36,0-2,0s-1.36,0-2,0c-.06,0-.09,0-.11-.07s-.05-.11-.12-.11-.11,0-.12.08a.16.16,0,0,1-.21.12h-.14a.1.1,0,0,0-.11.08.36.36,0,0,0,0,.14,5.61,5.61,0,0,0,0,.58.52.52,0,0,0,0,.18.14.14,0,0,1,0,.11,1.21,1.21,0,0,0-.09.2.13.13,0,0,0,.11.18l.22,0a.57.57,0,0,1,.23.12.31.31,0,0,1,.07.09h.77A1.88,1.88,0,0,1,15.85,16a.41.41,0,0,1,.25-.07.27.27,0,0,1,.15.05,1.28,1.28,0,0,0,.31.11h.11a1.61,1.61,0,0,0,.38,0c.16,0,.33,0,.49,0s.35,0,.52,0h.31a.14.14,0,0,0,.13-.19,1.09,1.09,0,0,1-.07-.24c0-.22,0-.44,0-.66,0-.06.06-.12.06-.19s0-.05.06-.07a.85.85,0,0,1,.24-.09c.22,0,.44,0,.64,0h.43c.25,0,.49,0,.74,0h.59l.29,0a.17.17,0,0,0,.14-.14,1,1,0,0,0,0-.17c0-.1,0-.2,0-.29a1.47,1.47,0,0,1,0-.21s0-.05,0-.06a.09.09,0,0,0,.06-.07A1.88,1.88,0,0,0,21.77,13.05Zm-5.45,2.64a.42.42,0,0,1-.19-.38v-.09a.08.08,0,0,1,0,0,1.08,1.08,0,0,0,.2.4v0Zm1.61,0a.9.9,0,0,1-.27.07h-1l-.1,0s0,0,0,0h0c.1,0,.11-.07.09-.15s0-.24-.07-.36a.31.31,0,0,1,0-.19l.09-.21a.15.15,0,0,1,.09-.06l.35,0,.33-.05.31,0a.37.37,0,0,1,.36.26,1.35,1.35,0,0,1,.05.44A.43.43,0,0,1,17.93,15.72Z"/><polygon class="cls-1" points="5.52 19.2 5.52 19.2 5.52 22.29 2.35 25.46 4.11 27.21 8 23.31 8 27.21 10.48 27.2 10.48 19.2 10.48 18.61 5.52 18.61 5.52 19.2"/><path class="cls-1" d="M14.09,15.53H7.25v-1h3.23V13.14l0-1.15-.66-1.23H6.88L5.52,13.14v4.47h8.57a1,1,0,0,0,.85-1A1,1,0,0,0,14.09,15.53Z"/></svg>