<svg id="Layer_1" data-name="Layer 1" xmlns="http://www.w3.org/2000/svg" viewBox="0 0 30 30"><defs><style>.cls-1{fill:#fff;}</style></defs><title>MOVE_Other</title><polygon class="cls-1" points="23.53 21.62 23.53 23.15 23.53 23.21 24.08 23.58 25.34 24.41 24.08 25.25 23.53 25.61 23.53 25.68 23.53 27.21 27.76 24.41 23.53 21.62"/><polygon class="cls-1" points="15.07 21.62 15.07 23.15 15.07 23.23 15.61 23.58 16.87 24.41 15.61 25.25 15.07 25.6 15.07 25.68 15.07 27.21 19.31 24.41 15.07 21.62"/><polygon class="cls-1" points="19.29 24.4 19.29 24.43 19.31 24.41 19.29 24.4"/><polygon class="cls-1" points="19.29 21.62 19.29 23.15 19.29 23.2 19.86 23.58 21.13 24.41 19.86 25.25 19.29 25.62 19.29 25.68 19.29 27.21 23.53 24.41 19.29 21.62"/><polygon class="cls-1" points="28.89 11.84 28.9 15.17 22.1 13.53 28.89 11.84"/><polygon class="cls-1" points="26.41 17.22 24.96 18.67 22.72 15 26.41 17.22"/><polygon class="cls-1" points="24.92 8.36 26.38 9.81 22.71 12.05 24.92 8.36"/><circle class="cls-1" cx="8" cy="11.15" r="3.59"/><circle class="cls-1" cx="27.09" cy="3.07" r="1.33"/><circle class="cls-1" cx="23.43" cy="3.07" r="1.33"/><circle class="cls-1" cx="19.77" cy="3.07" r="1.33"/><path class="cls-1" d="M15.27,15.85H6.88L5.52,18.22v1.42h0v5.09H2.63v2.48H8V24.29h2.48v2.92H13V23l-2.47-1.14V18.93H8v-1h7.24a1,1,0,1,0,0-2.08Z"/><path class="cls-1" d="M12,18.93a.16.16,0,0,0,.07.15l.18.12a.31.31,0,0,0,.19,0h.2s0,0,0,0,0,.14.15.14h.35l1.26,0h.11a.17.17,0,0,0,.13-.14s0-.05,0-.06a.26.26,0,0,0,.15-.31Z"/><path class="cls-1" d="M21.77,13.37s0-.08-.05-.09,0,0-.06-.07a.24.24,0,0,0,0-.08.09.09,0,0,0-.1-.06.18.18,0,0,1-.19-.08l0,0a.07.07,0,0,0-.1,0l0,0c0,.07-.07.07-.14.07h-.67c-.9,0-1.8,0-2.7,0-.68,0-1.36,0-2,0h-2c-.06,0-.1,0-.12-.07a.12.12,0,0,0-.12-.11c-.06,0-.1,0-.12.08s-.09.14-.2.12a.75.75,0,0,0-.15,0,.12.12,0,0,0-.11.08.78.78,0,0,0,0,.14v.58a.36.36,0,0,0,0,.18.09.09,0,0,1,0,.1,1.8,1.8,0,0,0-.08.21.13.13,0,0,0,.1.18l.22,0a.66.66,0,0,1,.24.11.33.33,0,0,1,.06.1h1.95a2,2,0,0,1,1.31.48l.08-.16a.11.11,0,0,1,.09-.06l.34,0,.34-.05a3,3,0,0,1,.31,0,.42.42,0,0,1,.36.27,1.08,1.08,0,0,1,0,.44.39.39,0,0,1-.21.33.5.5,0,0,1-.27.07h-.5c0,.09.06.19.09.28h.29c.18,0,.36,0,.53,0l.31,0a.14.14,0,0,0,.13-.18.72.72,0,0,1-.07-.25c0-.21,0-.43,0-.65,0-.07.05-.12.06-.19s0-.05.06-.07a.63.63,0,0,1,.24-.09c.22,0,.44,0,.63,0h.44c.24,0,.49,0,.74,0l.58,0h.29a.17.17,0,0,0,.15-.14l0-.17a1.46,1.46,0,0,0,0-.29,1.48,1.48,0,0,1,0-.21s0,0,0-.06a.07.07,0,0,0,.06-.07A1.35,1.35,0,0,0,21.77,13.37Z"/></svg>