<svg id="Layer_1" data-name="Layer 1" xmlns="http://www.w3.org/2000/svg" viewBox="0 0 30 30"><defs><style>.cls-1{fill:#fff;}</style></defs><title>MOVE_Hip_Fire</title><polygon class="cls-1" points="28.88 11.52 28.89 14.85 22.1 13.21 28.88 11.52"/><polygon class="cls-1" points="26.4 16.9 24.96 18.36 22.71 14.69 26.4 16.9"/><polygon class="cls-1" points="24.91 8.04 26.37 9.49 22.7 11.73 24.91 8.04"/><polygon class="cls-1" points="23.17 21.62 23.17 23.15 23.17 23.21 23.72 23.58 24.99 24.41 23.72 25.25 23.17 25.61 23.17 25.68 23.17 27.21 27.41 24.41 23.17 21.62"/><polygon class="cls-1" points="14.72 21.62 14.72 23.15 14.72 23.23 15.25 23.58 16.52 24.41 15.25 25.25 14.72 25.6 14.72 25.68 14.72 27.21 18.95 24.41 14.72 21.62"/><polygon class="cls-1" points="18.93 24.4 18.93 24.43 18.95 24.41 18.93 24.4"/><polygon class="cls-1" points="18.93 21.62 18.93 23.15 18.93 23.2 19.5 23.58 20.77 24.41 19.5 25.25 18.93 25.62 18.93 25.68 18.93 27.21 23.17 24.41 18.93 21.62"/><circle class="cls-1" cx="8" cy="6.06" r="3.59"/><path class="cls-1" d="M14.82,18.44a1.68,1.68,0,0,1-.74.17H12a.15.15,0,0,0,.07.15l.18.12a.41.41,0,0,0,.19.05h.2s0,0,0,0,0,.14.16.14h.34l1.26,0h.11c.08,0,.11-.07.13-.14s0-.05,0-.06c.17-.09.17-.18.14-.33Z"/><path class="cls-1" d="M21.77,13.05a.11.11,0,0,0-.06-.09s0,0-.05-.07l0-.07c0-.05-.05-.08-.1-.07a.18.18,0,0,1-.19-.08l0,0a.07.07,0,0,0-.1,0l0,0c0,.07-.07.07-.13.07h-.68c-.9,0-1.8,0-2.7,0-.68,0-1.36,0-2,0s-1.36,0-2,0c-.06,0-.1,0-.12-.07a.12.12,0,0,0-.12-.11c-.06,0-.1,0-.11.08a.16.16,0,0,1-.21.12h-.14a.1.1,0,0,0-.11.08.39.39,0,0,0,0,.14v.58a.36.36,0,0,0,0,.18.11.11,0,0,1,0,.11,1.19,1.19,0,0,0-.08.2.13.13,0,0,0,.1.18l.22,0a.55.55,0,0,1,.24.12s0,.06.06.09h.77A1.88,1.88,0,0,1,15.85,16a.41.41,0,0,1,.25-.07.3.3,0,0,1,.15.05,1.15,1.15,0,0,0,.31.11h.11a1.61,1.61,0,0,0,.38,0c.16,0,.32,0,.49,0s.35,0,.52,0h.31a.15.15,0,0,0,.13-.19.73.73,0,0,1-.07-.24c0-.22,0-.44,0-.66,0-.06,0-.12.06-.19s0-.05.06-.07a.85.85,0,0,1,.24-.09c.22,0,.44,0,.63,0h.44c.24,0,.49,0,.74,0h.58l.29,0a.17.17,0,0,0,.15-.14l0-.17a1.46,1.46,0,0,0,0-.29,1.48,1.48,0,0,1,0-.21s0-.05,0-.06a.07.07,0,0,0,.05-.07A1.57,1.57,0,0,0,21.77,13.05Zm-5.45,2.64a.46.46,0,0,1-.2-.38v-.05a.06.06,0,0,0,0,0,.08.08,0,0,1,0,0,1.23,1.23,0,0,0,.19.4,0,0,0,0,1,0,0Zm1.6,0a.77.77,0,0,1-.27.07h-1l-.11,0v0h0c.09,0,.11-.07.09-.15s-.05-.24-.07-.36a.41.41,0,0,1,0-.19,2,2,0,0,0,.1-.21.15.15,0,0,1,.09-.06l.34,0,.34-.05.31,0a.39.39,0,0,1,.36.26,1.12,1.12,0,0,1,0,.44A.41.41,0,0,1,17.92,15.72Z"/><polygon class="cls-1" points="5.52 19.2 5.52 19.2 5.52 22.29 2.35 25.46 4.1 27.21 8 23.31 8 27.21 10.47 27.2 10.47 19.2 10.47 18.61 5.52 18.61 5.52 19.2"/><path class="cls-1" d="M14.08,15.53H7.24v-1h3.23V13.14l0-1.15-.66-1.23H6.88L5.52,13.14v4.47h8.56a1.06,1.06,0,0,0,0-2.08Z"/></svg>