<svg id="Layer_1" data-name="Layer 1" xmlns="http://www.w3.org/2000/svg" viewBox="0 0 30 30"><defs><style>.cls-1{fill:#fff;}</style></defs><title>Reload</title><path class="cls-1" d="M17.1,3.27A23.52,23.52,0,0,1,7.81,16.53l-.51-.8L5.56,16.8l5.05,8.74A32.71,32.71,0,0,0,25.9,5.63Zm-5.48,18-.5-.87q.86-.5,1.65-1.05l.58.82C12.79,20.55,12.21,20.91,11.62,21.26ZM15,18.92l-.64-.77c.5-.42,1-.86,1.45-1.31l.7.71C16,18,15.5,18.48,15,18.92Zm2.9-2.87-.76-.65c.41-.49.82-1,1.2-1.54l.81.58C18.73,15,18.31,15.54,17.87,16.05Zm2.36-3.33-.86-.5c.33-.56.63-1.14.91-1.73l.9.43C20.89,11.53,20.57,12.14,20.23,12.72Zm.82-4c.22-.61.43-1.23.6-1.86l1,.27c-.18.65-.39,1.31-.63,1.94Z"/><path class="cls-1" d="M25.63,9.61A34.13,34.13,0,0,1,23,15a8.08,8.08,0,0,1-8,9.23c-.16,0-.31,0-.47,0a34.57,34.57,0,0,1-3.4,2.26l-.87.5L9.74,26l-5-8.74-.48-.84L5,16l1.74-1.07.27-.17a8.1,8.1,0,0,1,1-2.83l.74-1.21.89,1.11.43.53,1.22-6.58-6.74-.1.87,1,.55.65L5.5,8A12.49,12.49,0,1,0,25.63,9.61Z"/></svg>