<svg id="Layer_1" data-name="Layer 1" xmlns="http://www.w3.org/2000/svg" viewBox="0 0 30 30"><defs><style>.cls-1{fill:#fff;}</style></defs><title>Stun</title><path class="cls-1" d="M21.29,10.35l-.72-.16a15.75,15.75,0,0,1-5.9,1c-4.7,0-8.52-1.66-8.52-3.71a1.81,1.81,0,0,1,.21-.81L6.2,6.21,5.59,6a2.8,2.8,0,0,0-.44,1.47c0,2.69,4.1,4.71,9.52,4.71a15.68,15.68,0,0,0,6.82-1.36Z"/><path class="cls-1" d="M10.75,3.74l.32.4a18.32,18.32,0,0,1,3.6-.35c3.12,0,5.83.73,7.32,1.82l.06,0,1,.62L23.7,6c-1.23-1.88-4.7-3.17-9-3.17a18.91,18.91,0,0,0-3.73.35Z"/><polygon class="cls-1" points="23.6 23.89 19.85 19.11 18.81 19.11 11.19 19.11 10.15 19.11 6.4 23.89 6.4 27.87 23.6 27.87 23.6 23.89"/><path class="cls-1" d="M14.67,13.22a19.19,19.19,0,0,1-4.88-.59,5.23,5.23,0,0,0,10.44-.2A18.28,18.28,0,0,1,14.67,13.22Z"/><path class="cls-1" d="M19.48,9.53a5.21,5.21,0,0,0-9.06.16,16.2,16.2,0,0,0,4.25.53A15.57,15.57,0,0,0,19.48,9.53Z"/><polygon class="cls-1" points="21.53 6.45 21.67 8.1 20.39 9.15 22 9.53 22.61 11.07 23.46 9.65 25.12 9.55 24.03 8.3 24.45 6.7 22.92 7.34 21.53 6.45"/><polygon class="cls-1" points="6.55 1.43 6.63 3.55 4.94 4.82 6.97 5.39 7.66 7.4 8.83 5.64 10.95 5.61 9.64 3.95 10.27 1.93 8.28 2.66 6.55 1.43"/></svg>