<svg id="Layer_1" data-name="Layer 1" xmlns="http://www.w3.org/2000/svg" viewBox="0 0 30 30"><defs><style>.cls-1{fill:#fff;}</style></defs><title>Equip_Up</title><path class="cls-1" d="M20.15,18a1.55,1.55,0,0,0-.57-.26.26.26,0,0,0-.21,0c-.13.11-.31.12-.43.23-.38.36-.75.74-1.1,1.13a2.25,2.25,0,0,0-.29.53.35.35,0,0,1-.54.1l-.56-.5c-.31-.28-.59-.6-.92-.86s-.56-.55-.87-.8A6.55,6.55,0,0,1,14,17a1.66,1.66,0,0,1-.16-.21,2.62,2.62,0,0,1-.33-.72,1,1,0,0,0-.19-.34.94.94,0,0,0-1.11-.24c-.52.21-1,.44-1.55.66l-1.34.57L8.58,17c-.44.19-.87.39-1.32.56a1.45,1.45,0,0,0-.67.53c-.21.28-.35.45-.79.32-.08,0-.11,0-.17.05a.39.39,0,0,1-.46,0A1.07,1.07,0,0,1,5,18.27L2.86,16.09c-.19-.19-.38-.39-.58-.58s-.23-.24,0-.49c0-.06,0-.08,0-.12s-.2-.24-.32-.34a.91.91,0,0,1-.25-.42c0-.17-.06-.34-.11-.5a.38.38,0,0,1,.14-.37l.36-.34a.29.29,0,0,0,.1-.15c0-.2.2-.24.34-.28a1.33,1.33,0,0,0,.3-.11A10.56,10.56,0,0,1,5,11.6c.7-.18,1.41-.32,2.11-.48a7.94,7.94,0,0,0,1.72-.59c.34-.16.67-.33,1-.52a4.81,4.81,0,0,0,.6-.4,1.52,1.52,0,0,0,.51-.8,1.2,1.2,0,0,0,.08-.5,1.4,1.4,0,0,0-.21-.59c-.09-.15-.2-.3-.3-.45a.32.32,0,0,1,.12-.49l.5-.2c.08,0,.15,0,.19-.16a1,1,0,0,1,.26-.36c.32-.33.65-.66,1-1a1.19,1.19,0,0,1,.29-.21.26.26,0,0,1,.32,0c.08.09.18.16.25.25a.38.38,0,0,0,.56.14c.13-.08.22,0,.33.07a.33.33,0,0,1,0,.39c-.08.15,0,.22.07.32,1.16,1.16,2.31,2.32,3.48,3.47s2.31,2.33,3.5,3.46c1.58,1.49,3,3.09,4.64,4.56.4.37.78.77,1.16,1.15.1.11.19.2.36.11h.11c.12,0,.16,0,.17.16v.09a.47.47,0,0,0,.18.48.2.2,0,0,1,.06.27A.89.89,0,0,1,28,20c0,.07-.07.14,0,.22s0,.17-.05.24a3.93,3.93,0,0,1-.91.91.2.2,0,0,1-.22,0c-.07,0-.11,0-.16,0a4,4,0,0,0-.37.35,4,4,0,0,1-.53.46l-.35.23a.39.39,0,0,1-.48,0L24.33,22c-.35-.32-.67-.67-1-1s-.85-.84-1.3-1.23c-.25-.22-.47-.46-.74-.73S20.58,18.33,20.15,18Zm-3.95.11a1.42,1.42,0,0,0,.58.34,1,1,0,0,0,.92-.21,2.46,2.46,0,0,0,.67-.83.91.91,0,0,0-.16-1.06,5.43,5.43,0,0,0-.57-.49c-.21-.17-.44-.32-.65-.48l-.67-.52a.23.23,0,0,0-.24,0l-.53.19a.78.78,0,0,0-.34.31l-.48.72c-.12.17-.17.18-.42.1h0s0,.05,0,.06a1,1,0,0,0,.15.21l.31.32h0C15.22,17.19,15.7,17.66,16.2,18.12Zm-2.13-2.44s0,.05,0,.07l0-.06a2.71,2.71,0,0,1,.36-1,.26.26,0,0,0,.05-.12l-.09.07-.08.09A1.1,1.1,0,0,0,14.07,15.68Z"/><path class="cls-1" d="M21.34,20.54a6.94,6.94,0,0,1-.55-.54l-.21-.21c-.16-.14-.31-.3-.47-.46a5.31,5.31,0,0,0-.56-.52h0c-.38.37-.69.68-.93,1a.83.83,0,0,0-.07.13c0,.08-.07.16-.11.23a1.34,1.34,0,0,1-2.06.4l-.47-.42a7.75,7.75,0,0,1-3,.59H5.53V25h7.4A12.08,12.08,0,0,0,21.84,21C21.68,20.86,21.52,20.7,21.34,20.54Z"/><path class="cls-1" d="M20.78,7.8v3.26q.62.63,1.26,1.23c.76.72,1.5,1.46,2.22,2.19l.57.57A12.36,12.36,0,0,0,25,12.84v-5h2.74L22.9,1.47,18,7.8h2.75Z"/></svg>