<svg id="Layer_1" data-name="Layer 1" xmlns="http://www.w3.org/2000/svg" viewBox="0 0 30 30"><defs><style>.cls-1{fill:#fff;}</style></defs><title>Equip_Off</title><path class="cls-1" d="M20.34,18a1.73,1.73,0,0,0-.57-.26.27.27,0,0,0-.2,0c-.14.11-.32.12-.44.23-.37.37-.75.74-1.1,1.13a2.47,2.47,0,0,0-.29.53.35.35,0,0,1-.53.11l-.57-.5c-.31-.29-.59-.61-.92-.87s-.56-.55-.87-.8a7.84,7.84,0,0,1-.65-.64,1.16,1.16,0,0,1-.16-.21,3.06,3.06,0,0,1-.33-.71,1.08,1.08,0,0,0-.19-.35.94.94,0,0,0-1.11-.24l-1.55.66-1.34.57L8.77,17c-.44.19-.87.4-1.32.56a1.51,1.51,0,0,0-.67.53c-.21.29-.35.46-.79.32-.07,0-.11,0-.17.05a.38.38,0,0,1-.46,0l-.19-.17L3.06,16.07l-.59-.59c-.23-.23-.23-.23,0-.49,0-.05,0-.08,0-.11s-.2-.24-.32-.35a.86.86,0,0,1-.25-.42c0-.16-.06-.33-.11-.5a.38.38,0,0,1,.15-.37c.11-.12.24-.22.36-.34a.34.34,0,0,0,.09-.15c0-.2.21-.24.34-.27A1.66,1.66,0,0,0,3,12.36a9.71,9.71,0,0,1,2.15-.78c.7-.19,1.41-.33,2.11-.48A8.25,8.25,0,0,0,9,10.5c.33-.16.67-.33,1-.52a3.91,3.91,0,0,0,.6-.4,1.48,1.48,0,0,0,.51-.8,1.2,1.2,0,0,0,.08-.5,1.53,1.53,0,0,0-.2-.59l-.31-.44a.32.32,0,0,1,.12-.49c.16-.08.33-.14.5-.21s.15,0,.19-.16A1,1,0,0,1,11.74,6c.32-.34.65-.66,1-1a1,1,0,0,1,.28-.2.25.25,0,0,1,.32,0,3.07,3.07,0,0,1,.25.26.38.38,0,0,0,.56.13.25.25,0,0,1,.33.07.3.3,0,0,1,0,.39.22.22,0,0,0,.07.32C15.72,7.22,16.87,8.38,18,9.53s2.31,2.34,3.5,3.46c1.58,1.49,3.05,3.09,4.64,4.57.4.36.78.76,1.16,1.15.1.1.2.2.36.11a.14.14,0,0,1,.11,0c.12,0,.16,0,.17.15v.09a.47.47,0,0,0,.18.48.2.2,0,0,1,.06.27c0,.06,0,.12-.07.17s-.08.14,0,.22a.2.2,0,0,1-.05.24,3.93,3.93,0,0,1-.91.91.2.2,0,0,1-.22,0c-.07,0-.11,0-.16,0s-.25.22-.36.35a5.06,5.06,0,0,1-.88.69.37.37,0,0,1-.48,0c-.18-.15-.36-.3-.53-.46-.35-.32-.67-.66-1-1s-.85-.83-1.3-1.23c-.25-.21-.47-.46-.74-.73S20.77,18.3,20.34,18Zm-3.95.11a1.31,1.31,0,0,0,.58.34,1,1,0,0,0,.92-.2,2.77,2.77,0,0,0,.68-.84.94.94,0,0,0-.16-1.06,5.27,5.27,0,0,0-.58-.48c-.21-.17-.44-.33-.65-.49l-.67-.52a.26.26,0,0,0-.24-.05l-.52.19a.76.76,0,0,0-.35.31l-.48.72c-.12.17-.17.18-.42.11,0,0,0,0,0,0s0,0,0,.05a1.59,1.59,0,0,0,.15.21l.31.32h0Zm-2.13-2.43.05.06,0-.05a2.51,2.51,0,0,1,.37-1,.5.5,0,0,0,0-.13l-.09.08-.08.08A1.11,1.11,0,0,0,14.26,15.66Z"/><path class="cls-1" d="M21.53,20.52c-.19-.17-.36-.35-.55-.54l-.21-.22c-.16-.14-.31-.29-.47-.45a4.55,4.55,0,0,0-.56-.53h0c-.38.37-.68.69-.93,1a.83.83,0,0,0-.07.13,2.56,2.56,0,0,1-.11.24,1.35,1.35,0,0,1-2.06.39l-.48-.43a7.69,7.69,0,0,1-2.3.57l-1.09.09V17.89L6.36,22.76l6.33,4.87V24.94l1,0a11.3,11.3,0,0,0,8.26-4A4.27,4.27,0,0,0,21.53,20.52Z"/><path class="cls-1" d="M22.23,12.26c.76.72,1.5,1.47,2.22,2.19l.36.37a17.88,17.88,0,0,0,.42-3.88V4.65H21V11C21.38,11.45,21.81,11.86,22.23,12.26Z"/></svg>